<?xml version="1.0" standalone="no"?>
<!DOCTYPE svg PUBLIC "-//W3C//DTD SVG 20010904//EN"
 "http://www.w3.org/TR/2001/REC-SVG-20010904/DTD/svg10.dtd">
<svg version="1.0" xmlns="http://www.w3.org/2000/svg"
 width="538.000000pt" height="538.000000pt" viewBox="0 0 538.000000 538.000000"
 preserveAspectRatio="xMidYMid meet">
<metadata>
Created by potrace 1.14, written by Peter Selinger 2001-2017
</metadata>
<g transform="translate(0.000000,538.000000) scale(0.100000,-0.100000)"
fill="#000000" stroke="none">
<path d="M2500 5349 c-67 -28 -101 -86 -104 -179 -1 -38 -4 -71 -6 -73 -3 -3
-23 -8 -45 -11 -79 -13 -201 -37 -251 -50 l-51 -14 -28 65 c-32 72 -68 108
-125 123 -52 14 -100 4 -195 -40 -11 -5 -56 -25 -100 -43 -137 -58 -174 -137
-122 -264 l25 -61 -112 -73 c-61 -40 -128 -86 -148 -102 l-38 -30 -53 51 c-74
69 -144 85 -215 48 -15 -8 -77 -65 -138 -128 -118 -119 -138 -154 -127 -220 7
-46 19 -66 70 -119 l45 -47 -41 -55 c-57 -77 -151 -225 -151 -237 0 -5 -30 2
-68 16 -87 33 -147 29 -199 -13 -30 -24 -48 -56 -96 -169 -66 -156 -75 -209
-46 -265 23 -46 54 -71 123 -99 l53 -22 -23 -96 c-12 -52 -28 -132 -35 -177
l-12 -82 -71 0 c-84 0 -122 -17 -163 -70 l-28 -36 -2 -182 -3 -182 31 -42 c37
-52 80 -71 164 -74 36 -2 66 -5 69 -8 2 -2 7 -24 11 -49 8 -56 55 -282 61
-291 2 -3 -25 -18 -60 -33 -72 -31 -98 -54 -121 -109 -23 -55 -14 -94 52 -251
48 -113 66 -145 96 -169 51 -42 112 -46 197 -14 l66 24 27 -46 c47 -80 71
-117 121 -186 l48 -67 -45 -46 c-69 -72 -85 -118 -65 -191 12 -43 213 -253
268 -280 68 -33 135 -16 205 50 l53 50 90 -63 c49 -35 117 -80 150 -100 l60
-37 -25 -62 c-33 -82 -29 -144 14 -196 24 -30 56 -48 169 -96 150 -64 180 -71
236 -56 55 14 93 51 123 123 l27 64 52 -14 c43 -12 122 -27 236 -48 14 -2 35
-5 47 -5 21 -1 22 -6 21 -69 0 -74 12 -115 45 -150 44 -48 63 -52 254 -49
l180 2 36 28 c51 38 65 71 70 158 l4 74 44 8 c125 22 211 39 256 51 l50 13 30
-67 c37 -83 79 -118 150 -124 43 -4 68 3 198 57 122 51 153 69 178 99 40 50
46 113 18 188 -12 30 -21 60 -21 66 0 6 45 39 100 73 55 34 105 68 112 74 7 7
28 23 46 36 l33 23 53 -51 c30 -27 64 -52 77 -55 101 -23 129 -11 262 121 119
117 147 162 141 225 -5 52 -17 74 -72 130 l-45 47 50 68 c28 37 67 95 88 128
21 33 43 70 51 82 l13 21 58 -24 c92 -37 170 -28 220 27 24 27 129 272 139
325 8 45 -18 116 -56 147 -16 14 -53 35 -83 47 -54 22 -55 23 -46 54 14 48 41
177 46 221 12 101 11 100 91 102 79 2 117 17 155 63 33 39 39 83 35 266 -3
147 -4 151 -31 187 -39 51 -76 68 -157 70 -38 2 -71 5 -74 8 -3 2 -8 27 -11
54 -4 28 -8 57 -10 65 -2 8 -7 31 -10 50 -3 19 -14 67 -24 107 l-18 71 63 27
c35 15 75 41 89 57 30 35 48 100 40 139 -12 54 -116 294 -138 318 -51 55 -128
64 -220 27 l-58 -24 -13 21 c-8 12 -30 49 -51 82 -21 33 -60 91 -87 128 l-50
68 50 53 c66 70 80 119 55 201 -7 25 -219 242 -253 260 -72 38 -142 23 -216
-46 l-52 -50 -90 63 c-50 35 -117 80 -150 100 l-61 37 25 62 c32 79 30 138 -7
188 -29 41 -41 48 -205 116 -128 54 -152 59 -207 44 -56 -15 -91 -49 -122
-124 l-27 -62 -91 22 c-51 13 -112 25 -137 29 -25 4 -64 9 -87 13 l-42 6 1 72
c1 83 -19 127 -75 167 -30 22 -43 23 -207 25 -104 2 -185 -2 -200 -8z m315
-234 c4 -136 47 -176 214 -201 53 -8 145 -26 205 -40 96 -23 114 -25 150 -14
53 16 106 72 129 137 l17 52 115 -47 c89 -36 113 -50 109 -62 -72 -168 -55
-229 83 -315 46 -27 124 -79 174 -115 108 -76 120 -82 176 -81 54 0 76 12 136
69 l47 47 87 -87 87 -87 -52 -54 c-57 -61 -67 -86 -60 -156 4 -39 17 -64 71
-140 36 -50 89 -130 117 -176 83 -137 153 -163 283 -105 27 12 50 20 51 18 1
-1 23 -53 48 -114 l46 -112 -60 -23 c-70 -28 -112 -71 -128 -130 -10 -35 -7
-57 14 -147 14 -59 33 -152 41 -206 9 -55 21 -109 27 -120 33 -64 81 -89 173
-91 l70 -1 3 -122 c1 -67 -1 -122 -5 -123 -4 -1 -37 -2 -73 -4 -131 -5 -171
-48 -196 -212 -7 -53 -23 -135 -35 -182 -11 -47 -22 -95 -25 -106 -2 -11 -2
-37 2 -59 8 -51 73 -117 132 -134 24 -7 45 -19 48 -26 3 -7 -14 -60 -38 -118
-31 -76 -47 -104 -58 -101 -8 3 -37 14 -64 25 -59 24 -133 19 -177 -13 -16
-11 -49 -54 -74 -97 -25 -42 -72 -112 -103 -155 -80 -110 -92 -135 -92 -190 0
-59 10 -79 68 -140 l47 -47 -87 -87 -87 -87 -54 52 c-61 57 -86 67 -156 60
-39 -4 -64 -17 -147 -76 -54 -39 -134 -92 -176 -117 -125 -75 -154 -148 -103
-265 13 -30 20 -58 17 -62 -4 -4 -55 -27 -114 -52 l-107 -44 -17 46 c-34 90
-82 138 -149 146 -21 3 -75 -4 -119 -15 -110 -27 -164 -37 -233 -44 -141 -16
-195 -70 -198 -200 l-1 -70 -124 0 -124 0 -1 71 c-1 51 -7 81 -21 105 -37 62
-77 79 -249 104 -22 4 -88 17 -146 31 -105 25 -129 25 -180 6 -35 -14 -84 -74
-98 -123 -7 -22 -18 -42 -26 -45 -7 -3 -53 11 -101 31 -130 54 -124 49 -110
87 6 18 15 38 19 45 4 6 10 31 13 56 9 61 -21 127 -73 160 -68 43 -237 155
-289 191 -87 60 -163 51 -247 -32 l-47 -47 -87 87 -87 87 46 49 c58 62 67 80
69 134 2 56 -4 68 -81 177 -36 50 -88 128 -115 174 -62 100 -102 127 -180 122
-27 -1 -70 -12 -95 -23 -25 -12 -48 -18 -52 -14 -15 15 -89 205 -85 217 3 6
27 20 54 30 57 21 89 48 113 95 21 43 20 87 -9 201 -11 47 -28 129 -35 182
-25 164 -66 208 -196 212 -36 2 -69 3 -73 4 -4 1 -6 56 -5 123 l3 122 70 1
c135 4 181 53 200 212 3 28 18 100 32 160 33 139 35 179 13 223 -25 48 -55 73
-121 100 l-57 23 15 36 c8 20 21 50 28 66 7 17 23 52 34 78 l20 48 38 -17
c140 -61 209 -39 287 93 26 43 79 122 117 176 107 149 109 210 8 313 l-44 44
88 87 87 88 47 -47 c59 -56 83 -69 132 -70 57 -1 77 9 181 82 52 37 129 88
170 113 89 54 119 91 127 155 4 37 0 61 -21 111 -15 35 -26 64 -24 65 11 8
210 86 218 86 6 0 22 -26 36 -57 32 -74 65 -108 119 -123 38 -11 56 -9 152 14
59 14 122 27 138 30 139 21 179 30 207 49 50 34 70 78 73 160 2 40 4 73 4 75
1 1 56 1 123 0 l122 -3 1 -70z"/>
<path d="M2543 4627 c-102 -102 -113 -116 -113 -149 0 -73 90 -110 145 -58 12
11 23 20 26 20 2 0 4 -213 3 -472 0 -260 1 -478 3 -484 3 -7 34 -11 86 -10
l82 1 0 483 c0 265 2 482 4 482 3 0 15 -9 27 -21 12 -11 36 -22 54 -24 44 -6
90 39 90 86 0 29 -15 48 -113 146 -100 100 -117 113 -147 113 -30 0 -47 -13
-147 -113z"/>
<path d="M2396 3934 c-19 -20 -43 -56 -52 -80 -14 -37 -25 -48 -62 -64 -34
-15 -48 -17 -59 -9 -21 18 -118 37 -160 32 -73 -9 -124 -41 -225 -140 -121
-119 -151 -174 -150 -268 0 -41 8 -78 21 -104 19 -41 19 -42 0 -85 -15 -35
-27 -46 -63 -60 -25 -10 -62 -34 -83 -55 -60 -57 -77 -102 -81 -210 l-4 -94
23 6 c45 10 64 15 107 26 42 12 42 12 42 57 0 67 22 101 73 115 95 26 108 37
132 119 4 14 18 46 31 72 31 62 30 98 -5 153 -16 25 -28 54 -26 63 2 9 4 23 4
30 1 17 186 202 203 203 7 0 21 2 30 4 9 2 38 -10 63 -26 57 -36 86 -36 166 0
35 15 76 33 92 39 l27 12 0 150 c0 82 -2 150 -5 150 -2 0 -20 -16 -39 -36z"/>
<path d="M2940 3817 l0 -154 43 -13 c23 -7 63 -23 89 -36 60 -30 96 -30 141 0
36 25 52 29 96 27 27 -1 210 -180 212 -208 4 -44 -2 -65 -26 -97 -32 -41 -32
-83 -1 -144 13 -26 29 -64 35 -85 19 -57 57 -97 92 -97 70 0 109 -45 109 -125
l0 -44 53 -14 c28 -9 67 -18 85 -22 l33 -7 -2 89 c-2 98 -8 117 -57 185 -24
35 -50 55 -94 76 -49 24 -63 37 -78 70 -18 40 -18 42 2 83 30 63 28 154 -6
222 -34 70 -205 239 -272 268 -63 28 -152 29 -214 2 -44 -19 -46 -19 -87 -1
-31 13 -44 27 -52 51 -13 40 -51 93 -80 114 -21 14 -21 14 -21 -140z"/>
<path d="M2561 3294 c-142 -38 -257 -135 -323 -272 -36 -74 -40 -92 -45 -180
-6 -111 8 -178 58 -273 54 -102 164 -195 274 -233 67 -24 196 -31 268 -17 136
29 271 129 335 249 180 338 -53 736 -433 740 -44 1 -104 -5 -134 -14z m284
-191 c194 -101 235 -373 78 -527 -65 -64 -143 -96 -233 -97 -85 0 -165 32
-228 94 -197 191 -94 517 178 563 73 12 137 2 205 -33z"/>
<path d="M1950 2750 c-36 -10 -173 -46 -304 -80 -131 -34 -247 -67 -258 -73
-10 -7 -21 -21 -25 -32 -4 -11 -7 -185 -7 -387 l-1 -367 -62 -31 c-202 -101
-250 -360 -98 -529 120 -133 344 -139 473 -13 171 167 123 452 -93 547 l-52
23 1 328 1 328 35 8 c44 11 459 118 482 124 14 4 15 10 2 57 -8 29 -14 67 -14
85 0 17 -3 31 -7 31 -5 -1 -37 -10 -73 -19z m-419 -1135 c57 -37 84 -109 66
-175 -28 -104 -138 -153 -233 -104 -96 50 -119 176 -46 258 50 56 144 65 213
21z"/>
<path d="M3355 2756 c-2 -6 -6 -27 -9 -46 -8 -54 -17 -93 -22 -101 -4 -8 16
-16 58 -25 13 -2 124 -31 248 -63 l225 -58 1 -327 2 -327 -53 -23 c-123 -55
-196 -169 -196 -306 0 -110 46 -204 129 -265 234 -172 551 -2 536 289 -6 115
-79 222 -187 276 l-62 31 0 374 0 375 -25 24 c-21 20 -133 57 -249 81 -9 2
-79 20 -156 40 -77 21 -162 43 -188 50 -36 9 -50 9 -52 1z m667 -1132 c51 -26
94 -108 84 -160 -27 -141 -182 -196 -279 -99 -135 135 24 345 195 259z"/>
<path d="M1796 2366 c-71 -20 -79 -25 -92 -56 -8 -19 -15 -62 -15 -96 -1 -93
25 -140 138 -256 103 -105 167 -146 238 -151 45 -4 138 15 158 32 11 8 25 6
60 -9 35 -16 48 -28 57 -54 12 -39 50 -92 79 -113 21 -14 21 -14 21 137 l0
150 -27 12 c-16 6 -57 24 -92 39 -78 36 -120 37 -158 5 -30 -26 -41 -29 -86
-27 -22 1 -50 23 -123 96 -52 52 -95 103 -95 113 -4 43 2 64 26 96 16 21 25
46 25 69 0 44 -1 44 -114 13z"/>
<path d="M3470 2352 c0 -22 7 -46 18 -58 20 -22 39 -64 36 -81 -1 -7 -2 -20
-3 -29 -1 -19 -185 -204 -203 -205 -7 0 -21 -2 -30 -4 -9 -2 -38 10 -63 26
-56 35 -91 36 -153 5 -26 -13 -66 -29 -89 -36 l-43 -13 0 -155 c0 -146 1 -154
17 -141 36 28 45 40 73 95 22 44 37 60 68 74 39 18 41 18 82 -2 56 -28 150
-28 214 0 63 28 238 200 271 266 28 56 33 154 11 215 -12 32 -17 36 -97 57
-111 30 -109 31 -109 -14z"/>
<path d="M2606 2141 c-1 -4 -2 -138 -2 -298 1 -191 -2 -293 -9 -293 -27 0
-120 -54 -163 -94 -109 -102 -147 -266 -93 -408 78 -204 315 -298 515 -203
169 80 254 287 191 466 -31 87 -111 174 -194 211 -25 11 -53 24 -61 28 -13 6
-15 50 -15 302 l0 295 -83 -1 c-46 0 -84 -2 -86 -5z m169 -770 c78 -36 125
-117 120 -204 -4 -51 -19 -82 -64 -130 -58 -63 -157 -77 -239 -32 -50 27 -101
92 -103 130 0 11 -2 29 -4 40 -7 38 18 105 54 146 59 66 156 87 236 50z"/>
</g>
</svg>
