<svg xmlns="http://www.w3.org/2000/svg" viewBox="0 0 15 15"
     fill="none">
    <path
            d="M14.3006 1.66492C14.5665 1.39905 14.5665 0.965267 14.3006 0.6994C14.0347 0.433533 13.6009 0.433533 13.3351 0.6994L7.5 6.53448L1.66492 0.6994C1.39905 0.433533 0.965267 0.433533 0.6994 0.6994C0.433533 0.965267 0.433533 1.41304 0.6994 1.66492L6.53448 7.5L0.713392 13.3351C0.447526 13.6009 0.447526 14.0347 0.713392 14.3006C0.979259 14.5665 1.41304 14.5665 1.67891 14.3006L7.5 8.46552L13.3211 14.3006C13.587 14.5665 14.0207 14.5665 14.2866 14.3006C14.5525 14.0347 14.5525 13.587 14.2866 13.3351L8.47951 7.5L14.3006 1.66492Z"
            fill="currentColor"/>
</svg>