<svg xmlns="http://www.w3.org/2000/svg" data-name="Layer 1" viewBox="0 0 128 160" x="0px" y="0px">
    <title>miscellaneous 407 final</title>
    <path d="M88,76.25317V74.62469a6.29728,6.29728,0,0,0-.76825-2.30554l-4.32922-1.11823a2.26316,2.26316,0,0,0,.45557,2.54407l.00317.00317a2.381,2.381,0,0,1,0,3.36719l-3.36713,3.36719a2.38091,2.38091,0,0,1-3.36719,0l-.00317-.00317a2.26658,2.26658,0,0,0-2.66278-.40472,21.25213,21.25213,0,0,1-3.60883,1.49866A2.252,2.252,0,0,0,70,81.71741V88.9657a6.3758,6.3758,0,0,0,2.63184-3.94c.73358-.26562,1.45679-.566,2.16418-.89886a6.38519,6.38519,0,0,0,8.02661-.81592l3.36707-3.36719A6.32783,6.32783,0,0,0,88,76.25317Z"/>
    <path d="M58,88.96564V81.71741a2.252,2.252,0,0,0-.35217-.1441A21.25213,21.25213,0,0,1,54.039,80.07465a2.26658,2.26658,0,0,0-2.66278.40472l-.00317.00317a2.381,2.381,0,0,1-3.36719-.00006l-3.36707-3.36713a2.381,2.381,0,0,1,0-3.36719L44.642,73.745a2.26344,2.26344,0,0,0,.45551-2.54413L40.76874,72.319A6.29527,6.29527,0,0,0,40,74.62439v1.62878a6.32819,6.32819,0,0,0,1.8103,3.69055l3.36713,3.36719a6.38622,6.38622,0,0,0,8.02692.8161c.70734.33282,1.43036.63312,2.16382.89868A6.37567,6.37567,0,0,0,58,88.96564Z"/>
    <path d="M61.17139,22.53516,62,21.70667V45.26013a14.47294,14.47294,0,0,1,4,0V21.70667l.82861.82849A1.99979,1.99979,0,0,0,69.65674,19.707l-4.24268-4.24219a1.99927,1.99927,0,0,0-2.82812,0L58.34326,19.707a1.99979,1.99979,0,0,0,2.82813,2.82813Z"/>
    <path d="M66,91.35284V76.98242a14.47294,14.47294,0,0,1-4,0V91.35284a9,9,0,1,0,4,0Zm-2,13.76825a5,5,0,1,1,5-5A5.00589,5.00589,0,0,1,64,105.12109Z"/>
    <path d="M96,85.26331V67.87109a2.00009,2.00009,0,0,0-1.5-1.93652L79.94659,62.17493a15.89347,15.89347,0,0,1-.75421,3.93652L92,69.41992V85.26331a8,8,0,1,0,4,0ZM94,97a4,4,0,1,1,4-4A4.00427,4.00427,0,0,1,94,97Z"/>
    <path d="M36,85.26331V69.41992l12.80762-3.30847a15.89347,15.89347,0,0,1-.75421-3.93652L33.5,65.93457A2.00009,2.00009,0,0,0,32,67.87109V85.26331a8,8,0,1,0,4,0ZM34,97a4,4,0,1,1,4-4A4.00427,4.00427,0,0,1,34,97Z"/>
    <path d="M64,49.12128a12,12,0,1,0,12,12A12.01359,12.01359,0,0,0,64,49.12128Zm0,20a8,8,0,1,1,8-8A8,8,0,0,1,64,69.12128Z"/>
    <path d="M124,57l-2.43457-.02832a57.65966,57.65966,0,0,0-1.68555-8.5415l2.231-.92383a4.005,4.005,0,0,0,2.16553-5.22656l-2.2959-5.54248a4,4,0,0,0-5.22656-2.16553l-2.25684.9043a57.912,57.912,0,0,0-4.84082-7.23242l1.71924-1.72021a3.99854,3.99854,0,0,0,.00049-5.65674l-4.24219-4.24219a3.99913,3.99913,0,0,0-5.65674-.001l-1.74121,1.7002a57.7896,57.7896,0,0,0-7.23828-4.83105l.93115-2.24756a4,4,0,0,0-2.165-5.2251L85.71924,3.72314a4.00587,4.00587,0,0,0-5.2251,2.165L79.542,8.10889A57.60362,57.60362,0,0,0,71,6.43506V4a4.00458,4.00458,0,0,0-4-4H61a4.00458,4.00458,0,0,0-4,4l-.02832,2.43457a57.65966,57.65966,0,0,0-8.5415,1.68555l-.92383-2.231a4.00473,4.00473,0,0,0-5.22656-2.16553L36.7373,6.01953a4,4,0,0,0-2.16553,5.22656l.9043,2.25684a57.912,57.912,0,0,0-7.23242,4.84082l-1.72021-1.71924A3.99854,3.99854,0,0,0,20.8667,16.624l-4.24219,4.24219a3.99913,3.99913,0,0,0-.001,5.65674l1.7002,1.74121a57.7896,57.7896,0,0,0-4.83105,7.23828l-2.24756-.93115a4,4,0,0,0-5.2251,2.165L3.72314,42.28076a4.00454,4.00454,0,0,0,2.165,5.2251l2.2207.95215A57.60362,57.60362,0,0,0,6.43506,57H4a4.00458,4.00458,0,0,0-4,4v6a4.00427,4.00427,0,0,0,4,4l2.43457.0293a57.71469,57.71469,0,0,0,1.68506,8.54l-2.23145.9248A4.0053,4.0053,0,0,0,3.72363,85.7207l2.2959,5.542a3.99963,3.99963,0,0,0,5.22559,2.165l2.25781-.9043a57.873,57.873,0,0,0,4.84131,7.2334L16.624,101.47656a4.00415,4.00415,0,0,0,0,5.65723l4.24219,4.24219a4.09474,4.09474,0,0,0,5.65674,0l1.7417-1.69922a57.89177,57.89177,0,0,0,7.23779,4.83105l-.93115,2.24707a4.005,4.005,0,0,0,2.16553,5.22559l5.543,2.2959a3.9986,3.9986,0,0,0,5.22607-2.165l.95215-2.2207A57.56,57.56,0,0,0,57,121.56445V124a4.00427,4.00427,0,0,0,4,4h6a4.00427,4.00427,0,0,0,4-4l.02783-2.43555a57.60923,57.60923,0,0,0,8.542-1.68457l.92383,2.23047a3.99841,3.99841,0,0,0,5.22607,2.166l5.54395-2.2959a4.0053,4.0053,0,0,0,2.16455-5.22656l-.9043-2.25684a57.84929,57.84929,0,0,0,7.23242-4.8418l1.72021,1.7207a4.09474,4.09474,0,0,0,5.65674,0l4.24268-4.24219a4.00415,4.00415,0,0,0,0-5.65723l-1.69971-1.74121a57.89266,57.89266,0,0,0,4.832-7.2373l2.24561.92969A4.00014,4.00014,0,0,0,121.98,91.26367l2.29688-5.54395a4.00518,4.00518,0,0,0-2.165-5.22559l-2.2207-.95215A57.60362,57.60362,0,0,0,121.56494,71H124a4.00427,4.00427,0,0,0,4-4V61A4.00458,4.00458,0,0,0,124,57Zm0,10h-2.43506a4.01634,4.01634,0,0,0-3.97119,3.55078,53.92725,53.92725,0,0,1-1.55811,7.9248,4.01917,4.01917,0,0,0,2.31348,4.78906l2.23193.9248-2.29687,5.543-2.24463-.92969a4.02148,4.02148,0,0,0-5.0249,1.752,54.20213,54.20213,0,0,1-4.4873,6.71484,4.0174,4.0174,0,0,0,.30029,5.31543l1.72021,1.7207-4.24268,4.24219-1.7207-1.7207a4.01557,4.01557,0,0,0-5.314-.30078,54.33784,54.33784,0,0,1-6.71582,4.48926,4.01931,4.01931,0,0,0-1.75244,5.02344l.93066,2.24609-5.54346,2.29492-.92432-2.23145a4.0185,4.0185,0,0,0-4.78955-2.31348,53.84706,53.84706,0,0,1-7.9248,1.55859A4.01614,4.01614,0,0,0,67,121.56445V124H61v-2.43555a4.01616,4.01616,0,0,0-3.55127-3.9707,53.83419,53.83419,0,0,1-7.92383-1.55859,4.0564,4.0564,0,0,0-1.082-.14746,4.00979,4.00979,0,0,0-3.708,2.46094l-.92432,2.23242-5.54346-2.2959.93066-2.24609a4.02058,4.02058,0,0,0-1.75293-5.02441A54.21017,54.21017,0,0,1,30.73,106.52637a4.01942,4.01942,0,0,0-5.31445.30078l-1.7207,1.7207-4.24268-4.24316,1.72021-1.71973a4.01676,4.01676,0,0,0,.30078-5.31445,54.23121,54.23121,0,0,1-4.48828-6.7168,4.01454,4.01454,0,0,0-5.02246-1.751l-2.24707.92969-2.2959-5.543,2.23047-.9248a4.01874,4.01874,0,0,0,2.31445-4.78906,53.9517,53.9517,0,0,1-1.55811-7.92285A4.01644,4.01644,0,0,0,6.43506,67H4V61H6.43506a4.01594,4.01594,0,0,0,3.97119-3.55078,54.04782,54.04782,0,0,1,1.55762-7.92432,4.01979,4.01979,0,0,0-2.313-4.79L7.41895,43.811l2.2959-5.54395,2.24707.93066a4.01743,4.01743,0,0,0,5.02344-1.75293,54.21477,54.21477,0,0,1,4.4873-6.71436,4.01784,4.01784,0,0,0-.2998-5.31494l-1.7207-1.7207,4.24268-4.24219,1.7207,1.71973a4.0173,4.0173,0,0,0,5.31445.30078,54.23289,54.23289,0,0,1,6.71533-4.48828,4.02018,4.02018,0,0,0,1.75244-5.02344l-.93018-2.24609,5.543-2.2959.92432,2.23145a4.02067,4.02067,0,0,0,4.78955,2.31348,54.016,54.016,0,0,1,7.92383-1.55811A4.016,4.016,0,0,0,61,6.43506V4h6V6.43506a4.01594,4.01594,0,0,0,3.55078,3.97119,54.04782,54.04782,0,0,1,7.92432,1.55762,4.01369,4.01369,0,0,0,4.79-2.313L84.189,7.41895l5.54395,2.2959-.93066,2.24707a4.02024,4.02024,0,0,0,1.75293,5.02344,54.21477,54.21477,0,0,1,6.71436,4.4873,4.01836,4.01836,0,0,0,5.31494-.2998l1.7207-1.7207,4.24219,4.24268-1.71973,1.7207a4.0173,4.0173,0,0,0-.30078,5.31445,54.23289,54.23289,0,0,1,4.48828,6.71533,4.01829,4.01829,0,0,0,5.02344,1.75244l2.24609-.93018,2.2959,5.543-2.23145.92432a4.02022,4.02022,0,0,0-2.31348,4.78955,54.016,54.016,0,0,1,1.55811,7.92383A4.016,4.016,0,0,0,121.56494,61H124Z"/>
    <path d="M39,58.74036a2.381,2.381,0,0,1,2.381-2.381,2.26639,2.26639,0,0,0,2.167-1.59021,21.25733,21.25733,0,0,1,1.49872-3.60883,2.26749,2.26749,0,0,0-.40472-2.66278l-.00317-.00317a2.381,2.381,0,0,1,0-3.36719L48.00592,41.76a2.38084,2.38084,0,0,1,3.36713,0l.00323.00323a2.26667,2.26667,0,0,0,2.66284.40472,21.25608,21.25608,0,0,1,3.6087-1.49872A2.252,2.252,0,0,0,58,40.52515V33.27692a6.37564,6.37564,0,0,0-2.63184,3.94c-.73358.26563-1.45673.566-2.16412.89886a6.38515,6.38515,0,0,0-8.02655.81573L41.8103,42.29883a6.39178,6.39178,0,0,0-.81531,8.02545c-.33307.70776-.63361,1.43127-.89935,2.16516A6.39224,6.39224,0,0,0,35,58.74036v2.67523l4-1.0332Z"/>
    <path d="M70,40.52515a2.252,2.252,0,0,0,.35217.1441A21.25671,21.25671,0,0,1,73.96094,42.168a2.26658,2.26658,0,0,0,2.66278-.40472L76.627,41.76a2.38091,2.38091,0,0,1,3.36719,0l3.36713,3.36719a2.381,2.381,0,0,1,0,3.36719l-.00317.00317a2.2675,2.2675,0,0,0-.40479,2.66278A21.25733,21.25733,0,0,1,84.452,54.76917a2.26644,2.26644,0,0,0,2.167,1.59021h.00006A2.381,2.381,0,0,1,89,58.74036v1.64178l4,1.03333V58.74036a6.39224,6.39224,0,0,0-5.09564-6.25092c-.26587-.73419-.56641-1.45782-.8996-2.16577a6.39136,6.39136,0,0,0-.81506-8.0249l-3.36713-3.36719a6.386,6.386,0,0,0-8.027-.816q-1.061-.49933-2.16376-.89868A6.37577,6.37577,0,0,0,70,33.27686Z"/>
</svg>